<svg width="177" height="210" viewBox="0 0 177 210" fill="none" xmlns="http://www.w3.org/2000/svg">
<ellipse cx="91.1552" cy="95.7751" rx="56.0039" ry="72.7677" transform="rotate(30.9332 91.1552 95.7751)" fill="url(#paint0_linear_115_173)"/>
<g filter="url(#filter0_bd_115_173)">
<ellipse cx="85.4437" cy="91.2059" rx="56.0039" ry="72.7677" transform="rotate(30.9332 85.4437 91.2059)" fill="white" fill-opacity="0.2" shape-rendering="crispEdges"/>
<path d="M131.338 118.709C111.056 152.553 74.1817 166.376 49.3234 151.479C24.4651 136.582 19.2681 97.5467 39.5499 63.7028C59.8317 29.859 96.7057 16.0356 121.564 30.9326C146.422 45.8295 151.619 84.8651 131.338 118.709Z" stroke="url(#paint1_linear_115_173)" stroke-width="5" shape-rendering="crispEdges"/>
</g>
<ellipse cx="83.6238" cy="89.8958" rx="43.7932" ry="56.6463" transform="rotate(30.9332 83.6238 89.8958)" fill="white" fill-opacity="0.2"/>
<path d="M120.33 111.893C104.402 138.473 75.0998 149.661 55.0195 137.627C34.9392 125.594 30.9886 94.4782 46.9172 67.8984C62.8459 41.3186 92.1479 30.1306 112.228 42.1642C132.308 54.1978 136.259 85.3133 120.33 111.893Z" stroke="#E37445" stroke-opacity="0.31" stroke-width="2"/>
<g filter="url(#filter1_d_115_173)">
<path d="M66.1045 108.136C64.0242 106.542 62.5481 104.756 61.6762 102.778C60.8043 100.801 60.5996 98.6481 61.0621 96.321C61.5566 94.0184 62.7974 91.5705 64.7845 88.9773C65.0856 88.5844 65.3961 88.5106 65.7162 88.7558L68.7885 91.11C69.0766 91.3308 69.055 91.6572 68.7238 92.0894C67.0679 94.2504 66.2383 96.3274 66.235 98.3204C66.2317 100.313 67.3501 102.168 69.5904 103.885C71.7666 105.552 73.6971 106.315 75.3816 106.171C77.0963 105.988 78.7967 104.797 80.4827 102.596C81.2655 101.575 81.7998 100.612 82.0857 99.709C82.4337 98.7908 82.5465 97.8482 82.4239 96.8812C82.3314 95.875 82.0169 94.7609 81.4801 93.5389L77.8982 85.0882C76.789 82.4921 76.3395 79.9962 76.5498 77.6006C76.8222 75.1901 77.8927 72.7988 79.7612 70.4265C82.3825 67.072 85.1612 65.3349 88.0975 65.2152C91.0639 65.0561 93.9713 66.0679 96.8196 68.2505C99.8919 70.6047 101.617 73.3918 101.994 76.6118C102.371 79.8318 101.13 83.3081 98.2693 87.0407C97.9683 87.4336 97.6737 87.5197 97.3857 87.299L94.3133 84.9448C93.9933 84.6996 93.9838 84.3805 94.2849 83.9876C96.0311 81.7087 96.7976 79.6146 96.5845 77.7051C96.4335 75.7809 95.3659 74.0586 93.3817 72.5382C91.6215 71.1894 89.9452 70.5597 88.3528 70.6491C86.7605 70.7385 85.2859 71.6354 83.9292 73.3397C82.723 74.8475 82.0796 76.35 81.999 77.8473C81.9485 79.3053 82.3263 80.9667 83.1323 82.8315L86.6182 91.2087C87.3225 92.8085 87.7746 94.3398 87.9744 95.8025C88.2063 97.2898 88.0795 98.8141 87.5943 100.375C87.1391 101.897 86.1739 103.621 84.6986 105.546C82.0492 109.004 79.0719 110.901 75.7667 111.237C72.4616 111.573 69.2408 110.539 66.1045 108.136ZM61.6189 111.901C61.2989 111.656 61.2894 111.337 61.5905 110.944L65.3389 106.053L69.2131 108.554L65.2389 113.74C64.9378 114.133 64.6273 114.207 64.3073 113.961L61.6189 111.901ZM94.4677 68.0385L98.216 63.1467C98.5171 62.7538 98.8277 62.68 99.1477 62.9252L101.836 64.9852C102.156 65.2304 102.166 65.5495 101.864 65.9424L97.8903 71.1288L94.4677 68.0385Z" fill="url(#paint2_linear_115_173)"/>
</g>
<defs>
<filter id="filter0_bd_115_173" x="4.5571" y="2.45261" width="161.773" height="207.507" filterUnits="userSpaceOnUse" color-interpolation-filters="sRGB">
<feFlood flood-opacity="0" result="BackgroundImageFix"/>
<feGaussianBlur in="BackgroundImage" stdDeviation="10"/>
<feComposite in2="SourceAlpha" operator="in" result="effect1_backgroundBlur_115_173"/>
<feColorMatrix in="SourceAlpha" type="matrix" values="0 0 0 0 0 0 0 0 0 0 0 0 0 0 0 0 0 0 127 0" result="hardAlpha"/>
<feOffset dx="10" dy="40"/>
<feGaussianBlur stdDeviation="5"/>
<feComposite in2="hardAlpha" operator="out"/>
<feColorMatrix type="matrix" values="0 0 0 0 0.9375 0 0 0 0 0.494687 0 0 0 0 0.0859375 0 0 0 0.05 0"/>
<feBlend mode="normal" in2="effect1_backgroundBlur_115_173" result="effect2_dropShadow_115_173"/>
<feBlend mode="normal" in="SourceGraphic" in2="effect2_dropShadow_115_173" result="shape"/>
</filter>
<filter id="filter1_d_115_173" x="59.8217" y="62.7839" width="45.2617" height="55.3189" filterUnits="userSpaceOnUse" color-interpolation-filters="sRGB">
<feFlood flood-opacity="0" result="BackgroundImageFix"/>
<feColorMatrix in="SourceAlpha" type="matrix" values="0 0 0 0 0 0 0 0 0 0 0 0 0 0 0 0 0 0 127 0" result="hardAlpha"/>
<feOffset dx="1" dy="2"/>
<feGaussianBlur stdDeviation="1"/>
<feComposite in2="hardAlpha" operator="out"/>
<feColorMatrix type="matrix" values="0 0 0 0 0 0 0 0 0 0 0 0 0 0 0 0 0 0 0.25 0"/>
<feBlend mode="normal" in2="BackgroundImageFix" result="effect1_dropShadow_115_173"/>
<feBlend mode="normal" in="SourceGraphic" in2="effect1_dropShadow_115_173" result="shape"/>
</filter>
<linearGradient id="paint0_linear_115_173" x1="114.42" y1="175.262" x2="118.702" y2="43.5187" gradientUnits="userSpaceOnUse">
<stop stop-color="#DF8267"/>
<stop offset="1" stop-color="#FFAE45"/>
</linearGradient>
<linearGradient id="paint1_linear_115_173" x1="140.723" y1="122.681" x2="101.46" y2="106.335" gradientUnits="userSpaceOnUse">
<stop stop-color="white"/>
<stop offset="1" stop-color="white" stop-opacity="0"/>
</linearGradient>
<linearGradient id="paint2_linear_115_173" x1="66.8247" y1="71.394" x2="81.1035" y2="112.517" gradientUnits="userSpaceOnUse">
<stop stop-color="#FFE5D1"/>
<stop offset="1" stop-color="#FFBBA2"/>
</linearGradient>
</defs>
</svg>
