<svg width="86" height="81" viewBox="0 0 86 81" fill="none" xmlns="http://www.w3.org/2000/svg">
<path d="M7.58195 69.3C6.14195 69.3 4.89862 68.9867 3.85195 68.36C2.81195 67.7333 2.00862 66.8567 1.44195 65.73C0.881953 64.6033 0.601953 63.2933 0.601953 61.8C0.601953 60.3067 0.881953 58.9967 1.44195 57.87C2.00862 56.7433 2.81195 55.8667 3.85195 55.24C4.89862 54.6133 6.14195 54.3 7.58195 54.3C9.23529 54.3 10.622 54.71 11.742 55.53C12.8686 56.35 13.662 57.46 14.122 58.86L11.382 59.62C11.1153 58.7467 10.6653 58.07 10.032 57.59C9.39862 57.1033 8.58195 56.86 7.58195 56.86C6.66862 56.86 5.90529 57.0633 5.29195 57.47C4.68529 57.8767 4.22862 58.45 3.92195 59.19C3.61529 59.93 3.46195 60.8 3.46195 61.8C3.46195 62.8 3.61529 63.67 3.92195 64.41C4.22862 65.15 4.68529 65.7233 5.29195 66.13C5.90529 66.5367 6.66862 66.74 7.58195 66.74C8.58195 66.74 9.39862 66.4967 10.032 66.01C10.6653 65.5233 11.1153 64.8467 11.382 63.98L14.122 64.74C13.662 66.14 12.8686 67.25 11.742 68.07C10.622 68.89 9.23529 69.3 7.58195 69.3ZM17.3238 69V54.6H23.4038C23.5438 54.6 23.7305 54.6067 23.9638 54.62C24.2038 54.6267 24.4172 54.6467 24.6038 54.68C25.4638 54.8133 26.1672 55.0967 26.7138 55.53C27.2672 55.9633 27.6738 56.51 27.9338 57.17C28.1938 57.8233 28.3238 58.5533 28.3238 59.36C28.3238 60.5667 28.0238 61.6 27.4238 62.46C26.8238 63.3133 25.8838 63.84 24.6038 64.04L23.4038 64.12H20.0438V69H17.3238ZM25.4438 69L22.6038 63.14L25.4038 62.6L28.5238 69H25.4438ZM20.0438 61.58H23.2838C23.4238 61.58 23.5772 61.5733 23.7438 61.56C23.9105 61.5467 24.0638 61.52 24.2038 61.48C24.5705 61.38 24.8538 61.2133 25.0538 60.98C25.2538 60.74 25.3905 60.4767 25.4638 60.19C25.5438 59.8967 25.5838 59.62 25.5838 59.36C25.5838 59.1 25.5438 58.8267 25.4638 58.54C25.3905 58.2467 25.2538 57.9833 25.0538 57.75C24.8538 57.51 24.5705 57.34 24.2038 57.24C24.0638 57.2 23.9105 57.1733 23.7438 57.16C23.5772 57.1467 23.4238 57.14 23.2838 57.14H20.0438V61.58ZM34.9493 69V63.14L30.0293 54.6H33.2093L36.3293 60.02L39.4493 54.6H42.6293L37.7093 63.14V69H34.9493ZM45.027 69V54.6H51.107C51.247 54.6 51.4336 54.6067 51.667 54.62C51.907 54.6267 52.1203 54.6467 52.307 54.68C53.167 54.8133 53.8703 55.0967 54.417 55.53C54.9703 55.9633 55.377 56.51 55.637 57.17C55.897 57.8233 56.027 58.5533 56.027 59.36C56.027 60.1667 55.8936 60.9 55.627 61.56C55.367 62.2133 54.9603 62.7567 54.407 63.19C53.8603 63.6233 53.1603 63.9067 52.307 64.04C52.1203 64.0667 51.907 64.0867 51.667 64.1C51.427 64.1133 51.2403 64.12 51.107 64.12H47.747V69H45.027ZM47.747 61.58H50.987C51.127 61.58 51.2803 61.5733 51.447 61.56C51.6136 61.5467 51.767 61.52 51.907 61.48C52.2736 61.38 52.557 61.2133 52.757 60.98C52.957 60.74 53.0936 60.4767 53.167 60.19C53.247 59.8967 53.287 59.62 53.287 59.36C53.287 59.1 53.247 58.8267 53.167 58.54C53.0936 58.2467 52.957 57.9833 52.757 57.75C52.557 57.51 52.2736 57.34 51.907 57.24C51.767 57.2 51.6136 57.1733 51.447 57.16C51.2803 57.1467 51.127 57.14 50.987 57.14H47.747V61.58ZM62.3748 69V57.14H57.8348V54.6H69.6348V57.14H65.0948V69H62.3748ZM78.4218 69.3C76.9818 69.3 75.7385 68.9867 74.6918 68.36C73.6518 67.7333 72.8485 66.8567 72.2818 65.73C71.7218 64.6033 71.4418 63.2933 71.4418 61.8C71.4418 60.3067 71.7218 58.9967 72.2818 57.87C72.8485 56.7433 73.6518 55.8667 74.6918 55.24C75.7385 54.6133 76.9818 54.3 78.4218 54.3C79.8618 54.3 81.1018 54.6133 82.1418 55.24C83.1885 55.8667 83.9918 56.7433 84.5518 57.87C85.1185 58.9967 85.4018 60.3067 85.4018 61.8C85.4018 63.2933 85.1185 64.6033 84.5518 65.73C83.9918 66.8567 83.1885 67.7333 82.1418 68.36C81.1018 68.9867 79.8618 69.3 78.4218 69.3ZM78.4218 66.74C79.3351 66.7533 80.0951 66.5567 80.7018 66.15C81.3085 65.7433 81.7618 65.1667 82.0618 64.42C82.3685 63.6733 82.5218 62.8 82.5218 61.8C82.5218 60.8 82.3685 59.9333 82.0618 59.2C81.7618 58.4667 81.3085 57.8967 80.7018 57.49C80.0951 57.0833 79.3351 56.8733 78.4218 56.86C77.5085 56.8467 76.7485 57.0433 76.1418 57.45C75.5351 57.8567 75.0785 58.4333 74.7718 59.18C74.4718 59.9267 74.3218 60.8 74.3218 61.8C74.3218 62.8 74.4718 63.6667 74.7718 64.4C75.0785 65.1333 75.5351 65.7033 76.1418 66.11C76.7485 66.5167 77.5085 66.7267 78.4218 66.74Z" fill="#66B686"/>
<path d="M42.5 35C32.8348 35 25 27.1652 25 17.5C25 7.83475 32.8348 0 42.5 0C52.1652 0 60 7.83475 60 17.5C60 27.1652 52.1652 35 42.5 35ZM40.75 24.5V28H44.25V24.5H46C46.8125 24.5 47.6089 24.2737 48.3001 23.8466C48.9912 23.4194 49.5498 22.8083 49.9131 22.0816C50.2765 21.3548 50.4303 20.5413 50.3573 19.7321C50.2844 18.9229 49.9875 18.15 49.5 17.5C49.9875 16.85 50.2844 16.0771 50.3573 15.2679C50.4303 14.4587 50.2765 13.6452 49.9131 12.9184C49.5498 12.1917 48.9912 11.5806 48.3001 11.1534C47.6089 10.7263 46.8125 10.5 46 10.5H44.25V7H40.75V10.5H35.5V24.5H40.75ZM39 19.25H46C46.2321 19.25 46.4546 19.3422 46.6187 19.5063C46.7828 19.6704 46.875 19.8929 46.875 20.125C46.875 20.3571 46.7828 20.5796 46.6187 20.7437C46.4546 20.9078 46.2321 21 46 21H39V19.25ZM39 14H46C46.2321 14 46.4546 14.0922 46.6187 14.2563C46.7828 14.4204 46.875 14.6429 46.875 14.875C46.875 15.1071 46.7828 15.3296 46.6187 15.4937C46.4546 15.6578 46.2321 15.75 46 15.75H39V14Z" fill="#66B686"/>
</svg>
