<svg width="184" height="44" viewBox="0 0 184 44" fill="none" xmlns="http://www.w3.org/2000/svg">
<path d="M50.36 14.8H44.9V11.02H60.14V14.8H54.74V31H50.36V14.8ZM61.7431 15.55H65.9731V18.07H66.2131C66.7931 17.05 67.3631 16.3 67.9231 15.82C68.5031 15.34 69.2231 15.1 70.0831 15.1C70.4431 15.1 70.7431 15.14 70.9831 15.22L70.5331 19.78C70.0131 19.64 69.5931 19.57 69.2731 19.57C68.8131 19.57 68.4031 19.66 68.0431 19.84C67.7031 20.02 67.3931 20.26 67.1131 20.56C66.8531 20.86 66.4731 21.32 65.9731 21.94V31H61.7431V15.55ZM77.5782 31.45C75.9782 31.45 74.7082 30.77 73.7682 29.41C72.8282 28.05 72.3582 26.2 72.3582 23.86C72.3582 21.02 73.0782 18.86 74.5182 17.38C75.9582 15.88 78.0282 15.13 80.7282 15.13C82.2482 15.13 84.0282 15.37 86.0682 15.85V31H82.0482L82.1382 28.54H82.0182C81.4982 29.48 80.8582 30.2 80.0982 30.7C79.3582 31.2 78.5182 31.45 77.5782 31.45ZM78.4782 27.76C79.0982 27.76 79.7082 27.43 80.3082 26.77C80.9082 26.11 81.4682 25.23 81.9882 24.13V19.09C81.3482 18.91 80.7082 18.82 80.0682 18.82C78.8682 18.82 77.9582 19.23 77.3382 20.05C76.7382 20.87 76.4382 22.08 76.4382 23.68C76.4382 24.94 76.6182 25.94 76.9782 26.68C77.3382 27.4 77.8382 27.76 78.4782 27.76ZM94.7839 31.45C93.0439 31.45 91.6739 30.79 90.6739 29.47C89.6939 28.13 89.2039 26.27 89.2039 23.89C89.2039 21.07 89.9339 18.91 91.3939 17.41C92.8739 15.89 94.9739 15.13 97.6939 15.13C98.0339 15.13 98.5439 15.15 99.2239 15.19V9.1H103.394V31H99.2839L99.3739 28.99H99.2539C98.7339 29.79 98.0939 30.4 97.3339 30.82C96.5939 31.24 95.7439 31.45 94.7839 31.45ZM95.7439 27.76C96.3839 27.76 97.0039 27.49 97.6039 26.95C98.2039 26.39 98.7439 25.6 99.2239 24.58V19.09C98.5439 18.91 97.8939 18.82 97.2739 18.82C96.0139 18.82 95.0539 19.23 94.3939 20.05C93.7539 20.87 93.4339 22.07 93.4339 23.65C93.4339 24.93 93.6339 25.94 94.0339 26.68C94.4539 27.4 95.0239 27.76 95.7439 27.76ZM114.558 31.45C112.058 31.45 110.088 30.73 108.648 29.29C107.228 27.85 106.518 25.85 106.518 23.29C106.518 21.63 106.828 20.19 107.448 18.97C108.068 17.73 108.938 16.78 110.058 16.12C111.198 15.46 112.528 15.13 114.048 15.13C116.288 15.13 118.008 15.85 119.208 17.29C120.408 18.73 121.008 20.81 121.008 23.53C121.008 23.99 120.998 24.33 120.978 24.55H110.778C110.978 25.61 111.438 26.42 112.158 26.98C112.878 27.52 113.848 27.79 115.068 27.79C115.808 27.79 116.578 27.7 117.378 27.52C118.178 27.32 118.878 27.06 119.478 26.74L120.168 30.13C119.368 30.55 118.478 30.87 117.498 31.09C116.538 31.33 115.558 31.45 114.558 31.45ZM116.958 21.37C116.898 20.51 116.598 19.83 116.058 19.33C115.518 18.81 114.798 18.55 113.898 18.55C113.038 18.55 112.328 18.8 111.768 19.3C111.228 19.8 110.888 20.49 110.748 21.37H116.958ZM121.921 11.02H126.541L130.021 25.39L133.591 11.14L139.201 10.72L142.981 25.81L146.491 11.02H150.781L145.381 31H140.131L136.261 15.19L132.241 31H127.051L121.921 11.02ZM156.914 31.45C155.314 31.45 154.044 30.77 153.104 29.41C152.164 28.05 151.694 26.2 151.694 23.86C151.694 21.02 152.414 18.86 153.854 17.38C155.294 15.88 157.364 15.13 160.064 15.13C161.584 15.13 163.364 15.37 165.404 15.85V31H161.384L161.474 28.54H161.354C160.834 29.48 160.194 30.2 159.434 30.7C158.694 31.2 157.854 31.45 156.914 31.45ZM157.814 27.76C158.434 27.76 159.044 27.43 159.644 26.77C160.244 26.11 160.804 25.23 161.324 24.13V19.09C160.684 18.91 160.044 18.82 159.404 18.82C158.204 18.82 157.294 19.23 156.674 20.05C156.074 20.87 155.774 22.08 155.774 23.68C155.774 24.94 155.954 25.94 156.314 26.68C156.674 27.4 157.174 27.76 157.814 27.76ZM171.685 37.72C170.765 37.72 169.805 37.5 168.805 37.06L169.435 33.58C170.195 33.96 170.835 34.15 171.355 34.15C171.975 34.15 172.435 33.95 172.735 33.55C173.055 33.15 173.395 32.45 173.755 31.45L167.725 15.61L172.105 15.25L175.795 26.32L179.215 15.55H183.385C182.105 19.43 180.755 23.25 179.335 27.01C177.935 30.77 176.845 33.35 176.065 34.75C175.505 35.75 174.875 36.49 174.175 36.97C173.495 37.47 172.665 37.72 171.685 37.72Z" fill="black"/>
<path fill-rule="evenodd" clip-rule="evenodd" d="M14.4697 9.00344C14.4697 7.39308 12.6637 6.44304 11.3367 7.35535L0.866943 14.5533C-0.28898 15.348 -0.288981 17.0548 0.866942 17.8495L11.3367 25.0474C12.6637 25.9597 14.4697 25.0097 14.4697 23.3993V21.2014H21.4697C22.5743 21.2014 23.4697 20.3059 23.4697 19.2014V13.2014C23.4697 12.0968 22.5743 11.2014 21.4697 11.2014H14.4697V9.00344Z" fill="#02CD68"/>
<path fill-rule="evenodd" clip-rule="evenodd" d="M24.4697 21.2049C24.4697 19.5945 26.2758 18.6445 27.6028 19.5568L38.0725 26.7547C39.2284 27.5494 39.2284 29.2562 38.0725 30.0509L27.6028 37.2488C26.2758 38.1611 24.4697 37.2111 24.4697 35.6007V33.4028H17.4697C16.3652 33.4028 15.4697 32.5074 15.4697 31.4028V25.4028C15.4697 24.2982 16.3652 23.4028 17.4697 23.4028H24.4697V21.2049Z" fill="#75BCFF"/>
</svg>
