<svg width="40" height="81" viewBox="0 0 40 81" fill="none" xmlns="http://www.w3.org/2000/svg">
<path d="M6.31976 27.755L4.50851 24.6172C3.51089 22.3773 2.99687 19.9521 3.00001 17.5C3.00001 7.83475 10.8348 0 20.5 0C30.1653 0 38 7.83475 38 17.5C38 27.1652 30.1653 35 20.5 35C17.7315 35.0018 15.0022 34.3459 12.5368 33.0863C10.0715 31.8267 7.94061 29.9994 6.31976 27.755Z" fill="#66B686"/>
<path d="M15.0713 13.0469V23H12.6787L9.1582 16.8066V23H6.75879V13.0469H9.1582L12.6787 19.2402V13.0469H15.0713Z" fill="white"/>
<path d="M20.3883 13.0469V23H17.9889V13.0469H20.3883ZM24.2574 17.1895V19.0352H19.7047V17.1895H24.2574ZM24.6471 13.0469V14.8994H19.7047V13.0469H24.6471Z" fill="white"/>
<path d="M32.0012 13.0469V23H29.6018V13.0469H32.0012ZM34.9953 13.0469V14.8994H26.676V13.0469H34.9953Z" fill="white"/>
<path d="M1.70859 69V54.6H4.46859L10.7286 64.2V54.6H13.4886V69H10.7286L4.46859 59.4V69H1.70859ZM17.2789 69V54.6H26.0789V57.32H19.9989V60.44H24.8789V63.16H19.9989V69H17.2789ZM32.2244 69V57.14H27.6844V54.6H39.4844V57.14H34.9444V69H32.2244Z" fill="#66B686"/>
</svg>
