<svg width="87" height="81" viewBox="0 0 87 81" fill="none" xmlns="http://www.w3.org/2000/svg">
<path d="M6.9318 69.3C5.86513 69.3 4.9018 69.1133 4.0418 68.74C3.18846 68.36 2.48513 67.82 1.9318 67.12C1.38513 66.4133 1.03846 65.5733 0.891797 64.6L3.7318 64.18C3.9318 65.0067 4.34513 65.6433 4.9718 66.09C5.59846 66.5367 6.3118 66.76 7.1118 66.76C7.55846 66.76 7.9918 66.69 8.4118 66.55C8.8318 66.41 9.17513 66.2033 9.4418 65.93C9.71513 65.6567 9.8518 65.32 9.8518 64.92C9.8518 64.7733 9.82846 64.6333 9.7818 64.5C9.7418 64.36 9.6718 64.23 9.5718 64.11C9.4718 63.99 9.32846 63.8767 9.1418 63.77C8.9618 63.6633 8.7318 63.5667 8.4518 63.48L4.7118 62.38C4.4318 62.3 4.10513 62.1867 3.7318 62.04C3.36513 61.8933 3.00846 61.6833 2.6618 61.41C2.31513 61.1367 2.02513 60.7767 1.7918 60.33C1.56513 59.8767 1.4518 59.3067 1.4518 58.62C1.4518 57.6533 1.69513 56.85 2.1818 56.21C2.66846 55.57 3.31846 55.0933 4.1318 54.78C4.94513 54.4667 5.84513 54.3133 6.8318 54.32C7.82513 54.3333 8.7118 54.5033 9.4918 54.83C10.2718 55.1567 10.9251 55.6333 11.4518 56.26C11.9785 56.88 12.3585 57.64 12.5918 58.54L9.6518 59.04C9.54513 58.5733 9.34846 58.18 9.0618 57.86C8.77513 57.54 8.4318 57.2967 8.0318 57.13C7.63846 56.9633 7.22513 56.8733 6.7918 56.86C6.36513 56.8467 5.9618 56.9067 5.5818 57.04C5.20846 57.1667 4.9018 57.3533 4.6618 57.6C4.42846 57.8467 4.3118 58.14 4.3118 58.48C4.3118 58.7933 4.40846 59.05 4.6018 59.25C4.79513 59.4433 5.03846 59.6 5.3318 59.72C5.62513 59.84 5.92513 59.94 6.2318 60.02L8.7318 60.7C9.10513 60.8 9.51846 60.9333 9.9718 61.1C10.4251 61.26 10.8585 61.4867 11.2718 61.78C11.6918 62.0667 12.0351 62.4467 12.3018 62.92C12.5751 63.3933 12.7118 63.9933 12.7118 64.72C12.7118 65.4933 12.5485 66.17 12.2218 66.75C11.9018 67.3233 11.4685 67.8 10.9218 68.18C10.3751 68.5533 9.75513 68.8333 9.0618 69.02C8.37513 69.2067 7.66513 69.3 6.9318 69.3ZM19.2498 69V57.14H14.7098V54.6H26.5098V57.14H21.9698V69H19.2498ZM35.2968 69.3C33.8568 69.3 32.6135 68.9867 31.5668 68.36C30.5268 67.7333 29.7235 66.8567 29.1568 65.73C28.5968 64.6033 28.3168 63.2933 28.3168 61.8C28.3168 60.3067 28.5968 58.9967 29.1568 57.87C29.7235 56.7433 30.5268 55.8667 31.5668 55.24C32.6135 54.6133 33.8568 54.3 35.2968 54.3C36.7368 54.3 37.9768 54.6133 39.0168 55.24C40.0635 55.8667 40.8668 56.7433 41.4268 57.87C41.9935 58.9967 42.2768 60.3067 42.2768 61.8C42.2768 63.2933 41.9935 64.6033 41.4268 65.73C40.8668 66.8567 40.0635 67.7333 39.0168 68.36C37.9768 68.9867 36.7368 69.3 35.2968 69.3ZM35.2968 66.74C36.2101 66.7533 36.9701 66.5567 37.5768 66.15C38.1835 65.7433 38.6368 65.1667 38.9368 64.42C39.2435 63.6733 39.3968 62.8 39.3968 61.8C39.3968 60.8 39.2435 59.9333 38.9368 59.2C38.6368 58.4667 38.1835 57.8967 37.5768 57.49C36.9701 57.0833 36.2101 56.8733 35.2968 56.86C34.3835 56.8467 33.6235 57.0433 33.0168 57.45C32.4101 57.8567 31.9535 58.4333 31.6468 59.18C31.3468 59.9267 31.1968 60.8 31.1968 61.8C31.1968 62.8 31.3468 63.6667 31.6468 64.4C31.9535 65.1333 32.4101 65.7033 33.0168 66.11C33.6235 66.5167 34.3835 66.7267 35.2968 66.74ZM51.453 69.3C50.013 69.3 48.7697 68.9867 47.723 68.36C46.683 67.7333 45.8797 66.8567 45.313 65.73C44.753 64.6033 44.473 63.2933 44.473 61.8C44.473 60.3067 44.753 58.9967 45.313 57.87C45.8797 56.7433 46.683 55.8667 47.723 55.24C48.7697 54.6133 50.013 54.3 51.453 54.3C53.1064 54.3 54.493 54.71 55.613 55.53C56.7397 56.35 57.533 57.46 57.993 58.86L55.253 59.62C54.9864 58.7467 54.5364 58.07 53.903 57.59C53.2697 57.1033 52.453 56.86 51.453 56.86C50.5397 56.86 49.7764 57.0633 49.163 57.47C48.5564 57.8767 48.0997 58.45 47.793 59.19C47.4864 59.93 47.333 60.8 47.333 61.8C47.333 62.8 47.4864 63.67 47.793 64.41C48.0997 65.15 48.5564 65.7233 49.163 66.13C49.7764 66.5367 50.5397 66.74 51.453 66.74C52.453 66.74 53.2697 66.4967 53.903 66.01C54.5364 65.5233 54.9864 64.8467 55.253 63.98L57.993 64.74C57.533 66.14 56.7397 67.25 55.613 68.07C54.493 68.89 53.1064 69.3 51.453 69.3ZM61.1949 69V54.6H63.9149V61.24L69.3949 54.6H72.7149L66.6949 61.7L73.0949 69H69.6549L63.9149 62.44V69H61.1949ZM80.3302 69.3C79.2636 69.3 78.3002 69.1133 77.4402 68.74C76.5869 68.36 75.8836 67.82 75.3302 67.12C74.7836 66.4133 74.4369 65.5733 74.2902 64.6L77.1302 64.18C77.3302 65.0067 77.7436 65.6433 78.3702 66.09C78.9969 66.5367 79.7102 66.76 80.5102 66.76C80.9569 66.76 81.3902 66.69 81.8102 66.55C82.2302 66.41 82.5736 66.2033 82.8402 65.93C83.1136 65.6567 83.2502 65.32 83.2502 64.92C83.2502 64.7733 83.2269 64.6333 83.1802 64.5C83.1402 64.36 83.0702 64.23 82.9702 64.11C82.8702 63.99 82.7269 63.8767 82.5402 63.77C82.3602 63.6633 82.1302 63.5667 81.8502 63.48L78.1102 62.38C77.8302 62.3 77.5036 62.1867 77.1302 62.04C76.7636 61.8933 76.4069 61.6833 76.0602 61.41C75.7136 61.1367 75.4236 60.7767 75.1902 60.33C74.9636 59.8767 74.8502 59.3067 74.8502 58.62C74.8502 57.6533 75.0936 56.85 75.5802 56.21C76.0669 55.57 76.7169 55.0933 77.5302 54.78C78.3436 54.4667 79.2436 54.3133 80.2302 54.32C81.2236 54.3333 82.1102 54.5033 82.8902 54.83C83.6702 55.1567 84.3236 55.6333 84.8502 56.26C85.3769 56.88 85.7569 57.64 85.9902 58.54L83.0502 59.04C82.9436 58.5733 82.7469 58.18 82.4602 57.86C82.1736 57.54 81.8302 57.2967 81.4302 57.13C81.0369 56.9633 80.6236 56.8733 80.1902 56.86C79.7636 56.8467 79.3602 56.9067 78.9802 57.04C78.6069 57.1667 78.3002 57.3533 78.0602 57.6C77.8269 57.8467 77.7102 58.14 77.7102 58.48C77.7102 58.7933 77.8069 59.05 78.0002 59.25C78.1936 59.4433 78.4369 59.6 78.7302 59.72C79.0236 59.84 79.3236 59.94 79.6302 60.02L82.1302 60.7C82.5036 60.8 82.9169 60.9333 83.3702 61.1C83.8236 61.26 84.2569 61.4867 84.6702 61.78C85.0902 62.0667 85.4336 62.4467 85.7002 62.92C85.9736 63.3933 86.1102 63.9933 86.1102 64.72C86.1102 65.4933 85.9469 66.17 85.6202 66.75C85.3002 67.3233 84.8669 67.8 84.3202 68.18C83.7736 68.5533 83.1536 68.8333 82.4602 69.02C81.7736 69.2067 81.0636 69.3 80.3302 69.3Z" fill="#66B686"/>
<path d="M29.3198 27.755L36.1623 20.9125L41.113 25.8615L49.1123 17.864L52.25 21V12.25H43.5L46.6378 15.3877L41.113 20.9125L36.164 15.9617L27.5085 24.6172C26.5109 22.3773 25.9969 19.9521 26 17.5C26 7.83475 33.8348 0 43.5 0C53.1653 0 61 7.83475 61 17.5C61 27.1652 53.1653 35 43.5 35C40.7315 35.0018 38.0022 34.3459 35.5368 33.0863C33.0715 31.8267 30.9406 29.9994 29.3198 27.755Z" fill="#66B686"/>
</svg>
